<svg xmlns="http://www.w3.org/2000/svg" xml:space="preserve" width="635" height="226.77" viewBox="0 0 635 226.77"><path d="M19.994 17.427h191.864V209.29H19.994z"/><path fill="#fff" d="m175.5 100.629 4.917-3.588c-1.859-1.991-3.853-4.383-3.853-8.235 0-2.922 1.993-6.111 4.516-7.438-1.329-1.595-3.455-3.053-6.508-3.053-3.985 0-7.308 2.921-7.308 6.772 0 2.656 1.728 4.916 3.722 5.978 0 3.719 1.726 7.038 4.514 9.564m-26.297-26.167 4.117-7.307h-6.11c0 1.328-1.197 2.789-2.66 2.789-1.59 0-2.653-1.062-2.653-2.789h-5.446c0 1.594-1.195 2.789-2.656 2.789-1.46 0-2.657-1.195-2.657-2.789h-6.11l3.587 7.039a85 85 0 0 1 8.102-.396c4.911 0 9.164.264 12.486.664m-11.159 64.818c-.664-1.195-1.329-2.657-1.329-5.312 0-3.454 1.992-6.377 6.244-8.237 2.79-1.327 4.913-2.522 8.634-4.381 8.767-4.517 11.821-13.018 11.821-21.785 0-4.383-1.197-7.837-2.656-10.759.396 2.391.795 4.385.795 6.774 0 9.166-3.187 15.939-11.556 20.057-5.311 2.655-7.971 3.719-11.159 5.313-4.512 2.39-7.039 5.446-7.039 9.166.001 4.648 2.39 8.103 6.245 9.164m-5.181-1.725c-1.458-1.463-3.053-4.118-3.053-7.571 0-4.383 2.92-8.103 8.101-10.76 4.517-2.125 7.172-3.188 11.156-5.047 8.371-4.117 10.894-11.158 10.894-18.727 0-7.307-2.39-11.026-4.383-13.417 1.461 2.791 1.86 6.11 1.86 8.901 0 8.102-2.39 15.141-11.822 18.86-4.782 1.992-7.837 2.655-11.954 4.514-6.51 3.058-9.033 6.644-9.033 11.955-.001 5.049 3.187 9.829 8.234 11.292m-5.047-1.063c-2.26-1.859-5.182-4.914-5.182-10.361 0-5.711 2.391-9.961 9.829-13.149 4.785-1.991 7.307-2.921 11.824-4.649 9.562-3.586 11.554-10.627 11.554-17.535 0-6.639-2.391-10.494-5.313-13.016 1.728 2.125 2.791 5.713 2.791 9.43 0 8.766-3.322 13.682-12.751 17.003-3.853 1.194-7.969 2.39-12.221 3.983-7.703 2.922-11.688 7.172-11.688 14.347 0 7.438 5.711 13.018 11.157 13.947m-5.313-.929c-5.313-2.658-7.838-8.369-7.838-13.418 0-7.306 4.517-12.485 12.086-15.276 4.654-1.726 8.371-2.787 13.02-4.381 9.032-3.188 11.955-7.438 11.955-15.541 0-4.649-1.728-8.633-4.516-10.892.928 1.062 1.194 2.39 1.194 3.586 0 2.258-1.194 3.32-2.922 3.32-1.063 0-2.127-.664-2.259-1.726.531.396.932.531 1.464.531 1.458 0 2.256-1.063 2.256-2.524 0-2.258-2.125-3.454-4.25-3.719-1.86-.266-3.854-.266-6.11-.266s-4.383.132-7.172.266c1.726 2.391 7.438 1.728 9.164 2.922-1.463-.131-2.922-.131-4.386.264 0 .933-.396 1.994-1.326 1.994-1.727 0-2.524-1.858-3.719-5.18l-6.774.532c-1.063.132-1.461.531-1.33 1.328l.666 6.642c0 .264.266.397.533.397.264 0 .528-.133.662-.533.267-.531 1.065-1.726 3.056-1.726 2.922 0 5.18 2.658 5.311 5.71-1.061-1.458-3.451-2.789-7.438-2.789-3.054 0-5.576.93-9.562.93-4.25 0-6.641-1.594-6.641-3.585 0-.93.131-1.463.664-2.127-1.728.798-3.055 2.261-3.055 4.65 0 2.921 2.127 5.979 8.366 5.979 5.711 0 8.371-3.587 13.549-3.587 2.391 0 3.588 1.194 3.588 2.524 0 1.195-1.065 2.258-2.922 2.258-2.26 0-3.851-1.195-4.649-2.391-.133-.267-.267-.397-.533-.397-.396 0-.531.264-.531.53l.135 6.375c0 .797.396 1.197 1.328 1.063 3.983-.399 8.101-.93 11.955-1.194 7.172-.664 12.088-5.449 12.088-10.76 0-.797 0-1.463-.133-2.258.661 1.063.928 2.125.928 3.453 0 4.916-2.655 8.635-11.155 10.894-4.519 1.194-7.838 1.725-11.692 2.655-10.228 2.392-16.867 10.228-16.867 18.996-.001 8.102 5.71 15.408 13.812 16.471M78.004 87.611a7.45 7.45 0 0 0 .666-3.055c0-1.727-.798-3.32-1.594-3.983 1.992 0 3.718 1.459 3.718 3.453-.001 1.858-1.195 3.055-2.79 3.585m24.442 31.613 4.25-2.258c1.461-8.897 6.772-15.141 16.071-17.4-4.913.265-9.166.397-15.141.664-6.375.265-16.869 1.064-24.174 1.595q-2.193.198-2.791-1.595c-.397-1.328-1.195-3.852-1.328-5.313-.135-1.197.132-1.994 1.196-2.789 2.124-1.463 4.25-3.188 4.25-6.774 0-3.852-3.321-6.375-6.376-6.375-1.062 0-1.859.131-2.523.396-.799-.529-1.594-.928-3.188-.928-2.261 0-4.25 1.461-4.783 2.656-3.85-.265-6.905 2.524-6.641 6.244.531-.533 1.594-1.062 2.791-1.062 1.458 0 2.789 1.062 2.789 2.656 0 1.461-.267 3.322-.267 5.312 0 6.113 4.916 9.301 4.916 12.487 0 1.595-1.197 2.922-2.791 2.922.93 3.321 3.986 5.047 8.102 5.047 2.657 0 5.049-.265 8.899-.265 11.028-.002 15.807 1.194 16.739 4.78m40.909 37.59h1.332c-.138-4.252-1.197-7.174-2.922-10.226-.932-1.729-2.127-3.587-3.057-4.785-.531-.797-1.196-1.06-1.992-1.06-.533 0-.93.396-.533 1.06 1.066 1.728 2.525 4.384 4.385 8.501-1.594.267-1.993 1.063-1.993 2.391 0 2.126 1.993 4.119 4.78 4.119M72.826 88.143c.132-3.719-1.461-5.711-3.719-6.641.397-.133.928-.399 1.725-.399 1.728 0 3.588 1.463 3.588 3.721 0 1.193-.399 2.522-1.594 3.319m85.142 93.509c-.531-1.195-2.258-2.39-4.383-2.39-1.197 0-1.992.266-2.525.53.134-1.062 1.197-2.258 3.321-2.258 2.523.001 3.851 1.994 3.587 4.118m-.798 5.713c-.797-.93-2.124-1.728-3.851-1.728-2.126 0-3.188.93-3.721 1.595-.265-1.595 1.064-3.586 3.588-3.586 2.656 0 3.984 1.859 3.984 3.719m-94.438-63.361c.928-2.258 3.053-3.851 5.578-4.381.528-.799 1.194-1.461 1.86-1.993l-4.517-18.863c-.533-1.326-.932-2.653-.932-4.516 0-1.99.399-3.983.399-5.045 0-.93-.531-1.195-1.061-1.195-.4 0-.666 0-.797.132v.533c0 3.053-1.862 5.445-4.916 5.445-3.053 0-5.446-2.523-5.446-5.445s2.393-5.315 5.446-5.315c.531 0 1.197 0 1.992.266.93-2.39 3.852-4.516 6.906-4.117-2.124-2.658-5.312-4.251-8.898-4.251-7.705 0-13.813 5.579-13.813 13.417 0 7.303 5.978 13.149 13.416 13.282zm20.588 28.558c1.991 0 4.117-1.063 6.108-3.052 3.586-3.456 8.635-8.637 11.69-10.63 2.656-1.726 4.383-2.389 6.109-2.389 1.063 0 1.862.266 2.657 1.062l4.517-3.455c-5.18-3.852-7.571-8.898-7.705-15.141-7.172 3.851-12.352 9.166-18.332 14.211-1.062.799-1.592 1.195-2.522 1.195-.931 0-1.728-.929-3.322-2.523-1.328-1.327-1.594-2.124-1.594-3.053 0-1.595.533-2.127.533-4.252 0-4.25-3.32-6.642-6.508-6.642-2.658 0-4.65 1.461-5.313 3.321-3.588.265-5.846 2.923-5.846 5.709 0 .666.135 1.199.269 1.595-1.328.799-2.66 2.392-2.66 4.519 0 2.258 1.196 4.383 3.19 5.046q-.4-.598-.399-1.593c0-1.195 1.063-2.259 2.525-2.259 1.194 0 1.992.399 2.922 1.461 1.194 1.595 2.391 3.056 4.383 4.782 1.86 1.595 3.983 2.656 5.977 3.854 1.195.794 2.123 1.857 2.123 3.453 0 1.062-.795 2.257-2.389 2.656.663 1.462 1.993 2.125 3.587 2.125m-7.572-25.9c-.133-2.658-2.125-4.781-4.649-5.312a3.6 3.6 0 0 1 2.125-.664c1.858 0 3.322 1.593 3.322 3.317-.001 1.331-.4 1.995-.798 2.659m14.743 69.868c-.532-.665-.797-1.33-.797-2.126 0-1.593 1.328-2.79 3.187-2.79 2.922 0 4.517 3.189 8.371 3.189 4.383 0 6.506-3.189 10.492-3.189 1.994 0 4.785 1.197 4.785 3.72 0 .399-.137.798-.4 1.063 4.517 0 7.701-3.852 7.701-10.229 0-8.899-.263-12.485-.396-17.4 3.455-.133 6.773-1.86 6.24-7.304q-1.393 1.193-3.185 1.194c-1.594 0-2.792-1.194-2.792-2.923 0-.799 0-1.728.132-2.656l15.542-.4a4.86 4.86 0 0 1-2.523-4.248q0-1.992 1.595-2.791c-1.463-3.052-2.658-5.443-4.117-7.702-.799-1.194-1.728-2.392-3.588-2.392-4.119-.134-12.485 1.062-16.737 2.524-3.187 1.062-6.244 3.453-6.244 8.896 0 5.051 1.728 13.949 1.594 27.896 0 1.994-.531 2.658-1.725 2.922-1.063.267-3.853.531-5.58.267-.928-.135-1.727-.797-2.258-2.789-.664-2.791-2.656-5.579-6.641-5.579-3.588 0-6.772 2.657-6.242 6.641-1.728 1.064-2.525 2.792-2.525 4.383 0 1.594.531 2.923 1.195 3.72-.398.931-.529 1.46-.529 2.392.001 3.321 2.923 5.711 5.445 5.711M71.76 130.248c-.795-1.594-2.522-2.522-4.516-2.522-.796 0-1.459.133-1.99.264.264-1.063 1.461-1.991 3.188-1.991 2.259-.001 3.718 1.727 3.318 4.249m23.248 51.404c-.533-1.195-2.258-2.39-4.383-2.39-1.196 0-1.994.266-2.524.53.131-1.062 1.197-2.258 3.322-2.258 2.521.001 3.849 1.994 3.585 4.118M83.715 193.21c-.395-.798-.528-1.596-.528-2.392 0-.798.133-1.461.397-2.126-.664-1.196-1.063-2.523-1.063-3.985 0-1.991.932-3.85 2.26-5.046l-8.235-35.731c-1.33-.664-2.658-1.46-3.72-2.392-1.86-1.594-2.922-2.788-4.649-4.78-.533-.53-.932-.797-1.461-.797-.8 0-1.328.531-1.062 1.594l1.726 8.233 3.585 2.525 9.961 42.769zm10.498-5.845c-.799-.93-2.127-1.728-3.854-1.728-2.127 0-3.188.93-3.721 1.595-.262-1.595 1.065-3.586 3.588-3.586 2.655 0 3.987 1.859 3.987 3.719m-65.62 9.961 8.103-6.244 9.963-42.769 3.586-2.525 7.971-34.268-1.728-7.969c-1.994-.399-3.721-.93-5.18-1.727zm124.858-.796c-.531-.665-.796-1.33-.796-2.126 0-1.593 1.327-2.79 3.188-2.79 2.922 0 4.518 3.189 8.37 3.189 4.381 0 6.508-3.189 10.492-3.189 1.993 0 4.783 1.197 4.783 3.72 0 .399-.134.798-.398 1.063 4.517 0 7.704-3.852 7.704-10.229 0-8.5-.795-17.93-1.728-27.362 2.392-.531 4.65-2.922 4.65-5.978 0-1.062-.396-2.258-1.062-3.318-.666.929-1.86 1.725-3.851 2.257-2.791.795-6.244 1.194-8.77 1.194-5.71 0-7.569-.399-10.225-1.194-.135-3.587-2.391-6.51-4.516-8.502 3.319 1.328 4.78 1.992 10.093 1.992 17.002 0 27.496-11.422 27.496-24.44 0-9.431-5.979-13.812-11.424-17.001l-5.047 3.586c6.11 2.789 10.093 6.905 10.093 12.485 0 6.11-4.911 10.495-10.623 10.495-6.112 0-10.892-4.385-10.892-10.362 0-4.515 2.122-7.836 6.108-11.024s10.096-7.039 13.417-10.625c1.728-1.863 3.187-4.784 3.054-7.043 2.257-1.061 3.985-3.318 3.985-6.242 0-3.851-3.717-6.772-7.702-6.772-2.394 0-5.048 1.458-6.379 3.053 2.393.93 4.651 4.116 4.651 7.438 0 2.791-1.726 5.18-3.72 7.172-3.055 3.057-7.039 5.315-11.423 8.901-5.313 4.383-8.502 9.563-8.502 15.408 0 8.102 6.244 15.674 16.072 15.674 3.188 0 5.713-.664 7.573-1.861-3.189 3.72-9.165 5.58-15.408 5.58-5.449 0-9.166-.799-13.148-3.719-3.588-2.656-6.377-8.899-6.245-13.549-2.921 1.728-6.376 3.319-9.298 4.649-4.119 1.992-5.446 4.117-5.446 7.702 0 4.783 3.321 8.502 4.78 11.291 1.994 3.586 2.658 6.774 2.922 10.094.799 8.105 5.449 11.824 13.683 11.824 3.721 0 8.632-.266 10.626-.534.796 3.723 1.727 8.104 1.727 11.425 0 1.994-.532 2.658-1.727 2.922-1.062.267-3.854.531-5.579.267-.928-.135-1.727-.797-2.26-2.789-.663-2.791-2.656-5.579-6.639-5.579-3.588 0-6.775 2.657-6.244 6.641-1.728 1.064-2.524 2.792-2.524 4.383 0 1.594.531 2.923 1.195 3.72-.399.931-.532 1.46-.532 2.392 0 3.321 2.923 5.711 5.446 5.711"/><path d="M540.933 209.292h18.93v-6.257h-11.018v-4.439h10.657v-6.095h-10.657v-4.4h11.018v-6.258h-18.93zm-19.7.645c6.46 0 11.827-3.108 11.827-10.777v-17.316h-7.912v16.589c0 3.109-1.693 4.48-3.915 4.48-2.22 0-3.913-1.371-3.913-4.48v-16.589h-7.912v17.316c0 7.668 5.368 10.777 11.825 10.777m-28.414 0c4.884 0 8.273-1.492 9.928-2.343v-12.147h-7.708v7.427a8.6 8.6 0 0 1-1.776.201c-3.069 0-6.46-2.341-6.46-7.509 0-5.568 2.987-8.313 8.113-8.313 2.827 0 5.248.969 6.742 1.776v-6.46c-1.616-.726-4.278-1.735-7.91-1.735-9.326 0-15.583 5.772-15.583 14.732 0 8.963 6.981 14.371 14.654 14.371m-34.594-11.95 2.703-10.131h.364l2.707 10.131zm8.798 11.305h8.114l-8.235-27.449h-11.584l-8.193 27.449h8.111l1.496-5.691h8.758zm-37.215-14.775v-6.819h3.188c2.141 0 3.392 1.654 3.392 3.389 0 1.738-1.251 3.431-3.392 3.431h-3.188zm-7.913 14.775h7.913v-9.648h2.018l4.763 9.648h8.921l-5.043-8.479c-.524-.887-1.171-1.693-1.536-1.937l.042-.162c2.421-1.089 5.852-3.149 5.852-7.83 0-4.925-3.915-9.042-10.331-9.042h-12.598zm-20.301-14.775v-6.78h3.107c1.734 0 3.308 1.452 3.308 3.39 0 1.98-1.573 3.391-3.308 3.391zm-7.912 14.775h7.912v-8.882h4.036c6.419 0 10.413-4.074 10.413-9.122 0-5.046-3.994-9.445-10.413-9.445h-11.948zm-44.2 0h7.912v-16.468h.119l8.317 16.468h9.646v-27.449h-7.91v16.388h-.121l-8.233-16.388h-9.729v27.449zm-15.983 0h7.91v-27.449h-7.91zm-29.829.645c6.456 0 11.824-3.108 11.824-10.777v-17.316h-7.912v16.589c0 3.109-1.692 4.48-3.912 4.48-2.222 0-3.915-1.371-3.915-4.48v-16.589h-7.913v17.316c0 7.668 5.368 10.777 11.828 10.777m-31.524-.645h7.91V188.26h6.822v-6.417h-21.594v6.417h6.863v21.032zm-18.005.442c3.269 0 6.014-.848 7.669-1.693v-6.903c-1.574.848-3.391 1.574-6.257 1.574s-7.022-2.18-7.022-7.146c0-4.964 3.794-7.306 7.469-7.306 2.502 0 4.237.566 5.771 1.332v-6.821c-1.615-.725-3.631-1.291-6.863-1.291-8.111 0-15.013 5.33-15.013 14.086-.002 8.759 6.175 14.168 14.246 14.168M507.104 168.188h7.913v-10.052l9.487-17.4h-8.763l-4.479 9.812h-.161l-4.318-9.812h-8.961l9.282 17.4zm-23.046.647c4.885 0 8.276-1.494 9.93-2.342v-12.152h-7.709v7.429c-.563.122-1.171.2-1.776.2-3.068 0-6.456-2.341-6.456-7.505 0-5.572 2.984-8.316 8.111-8.316 2.823 0 5.249.97 6.741 1.774v-6.456c-1.616-.73-4.279-1.737-7.913-1.737-9.324 0-15.581 5.771-15.581 14.735-.001 8.96 6.983 14.37 14.653 14.37m-33.182-7.024c-3.509 0-5.285-2.826-5.285-7.346 0-4.521 1.776-7.347 5.285-7.347 3.554 0 5.211 2.825 5.211 7.347 0 4.519-1.657 7.346-5.211 7.346m0 7.024c8.195 0 13.685-5.208 13.685-14.37 0-9.164-5.489-14.372-13.685-14.372-8.152 0-13.764 5.208-13.764 14.372 0 9.162 5.612 14.37 13.764 14.37m-34.308-.647h17.721v-6.499h-9.809v-20.953h-7.912zm-20.141-6.377c-3.511 0-5.288-2.826-5.288-7.346 0-4.521 1.777-7.347 5.288-7.347 3.554 0 5.206 2.825 5.206 7.347 0 4.519-1.653 7.346-5.206 7.346m0 7.024c8.194 0 13.683-5.208 13.683-14.37 0-9.164-5.488-14.372-13.683-14.372-8.154 0-13.766 5.208-13.766 14.372 0 9.162 5.611 14.37 13.766 14.37m-46.22-.647h7.912v-16.47h.123l8.314 16.47h9.647v-27.452h-7.912v16.392h-.122l-8.233-16.392h-9.729zm-32.006-27.452v27.452h7.912v-10.74h8.112v10.74h7.911v-27.452h-7.911v10.499h-8.112v-10.499zm-13.643 27.895c3.268 0 6.013-.847 7.668-1.694v-6.903c-1.573.848-3.391 1.574-6.257 1.574s-7.024-2.181-7.024-7.143c0-4.967 3.796-7.308 7.471-7.308 2.503 0 4.237.564 5.771 1.332v-6.821c-1.615-.728-3.634-1.292-6.863-1.292-8.112 0-15.014 5.328-15.014 14.089-.001 8.757 6.173 14.166 14.248 14.166m-38.791-.443H284.7v-6.259h-11.02v-4.439h10.656v-6.095H273.68v-4.4h11.02v-6.259h-18.933zm-19.901 0h7.912v-21.031h6.82v-6.421h-21.595v6.421h6.863zM583.435 127.085h7.912v-16.469h.122l8.315 16.469h9.648v-27.45h-7.912v16.389h-.122l-8.234-16.389h-9.729zm-20.141-6.379c-3.512 0-5.287-2.826-5.287-7.346 0-4.523 1.775-7.347 5.287-7.347 3.553 0 5.206 2.824 5.206 7.347 0 4.52-1.653 7.346-5.206 7.346m0 7.023c8.194 0 13.685-5.206 13.685-14.369s-5.49-14.372-13.685-14.372c-8.155 0-13.764 5.21-13.764 14.372 0 9.163 5.609 14.369 13.764 14.369m-28.136-.644h7.912v-27.45h-7.912zm-19.898 0h7.913v-21.03h6.819v-6.42h-21.595v6.42h6.862v21.03zm-23.897-11.304 2.706-10.132h.362l2.705 10.132zm8.801 11.304h8.114l-8.236-27.45h-11.586l-8.194 27.45h8.117l1.491-5.693h8.758zm-54.09 0h7.549v-16.752h.121L460.847 122h.566l6.781-11.706h.121v16.792h7.71v-27.45h-9.163l-5.653 9.73h-.119l-5.649-9.73h-9.366zm-21.432-14.775v-6.821h3.188c2.139 0 3.393 1.655 3.393 3.392 0 1.735-1.254 3.429-3.393 3.429zm-7.913 14.775h7.913v-9.647h2.017l4.764 9.647h8.92l-5.043-8.479c-.527-.887-1.171-1.694-1.535-1.937l.04-.161c2.42-1.091 5.852-3.148 5.852-7.832 0-4.926-3.914-9.042-10.331-9.042H416.73zm-20.141-6.379c-3.513 0-5.288-2.826-5.288-7.346 0-4.523 1.775-7.347 5.288-7.347 3.552 0 5.205 2.824 5.205 7.347 0 4.52-1.653 7.346-5.205 7.346m0 7.023c8.194 0 13.684-5.206 13.684-14.369s-5.489-14.372-13.684-14.372c-8.155 0-13.765 5.21-13.765 14.372 0 9.163 5.61 14.369 13.765 14.369m-37.379-28.094v27.45h7.911v-10.617h10.739v-6.094H367.12v-4.481h10.858v-6.257h-18.769zm-34.067 27.45h7.912v-16.469h.122l8.314 16.469h9.648v-27.45h-7.912v16.389h-.123l-8.235-16.389h-9.727zm-15.984 0h7.91v-27.45h-7.91zm-35.36-27.45v27.45h7.912v-10.617h10.736v-6.094H281.71v-4.481h10.858v-6.257h-18.77zm-20.141 21.071c-3.513 0-5.288-2.826-5.288-7.346 0-4.523 1.774-7.347 5.288-7.347 3.553 0 5.207 2.824 5.207 7.347-.001 4.52-1.655 7.346-5.207 7.346m0 7.023c8.195 0 13.683-5.206 13.683-14.369s-5.488-14.372-13.683-14.372c-8.154 0-13.764 5.21-13.764 14.372 0 9.163 5.609 14.369 13.764 14.369M401.676 85.982h7.912V75.929l9.483-17.397h-8.758l-4.481 9.81h-.161l-4.318-9.81h-8.964l9.287 17.397zm-25.351 0h7.913V64.95h6.82v-6.417h-21.596v6.417h6.862zm-24.058 0h17.721v-6.5h-9.809v-20.95h-7.912zm-19.697.644c6.457 0 11.827-3.108 11.827-10.778V58.532h-7.912v16.59c0 3.107-1.696 4.479-3.915 4.479s-3.915-1.372-3.915-4.479v-16.59h-7.913v17.316c0 7.671 5.371 10.778 11.828 10.778m-25.269-.202c3.27 0 6.016-.848 7.671-1.694v-6.903c-1.572.848-3.39 1.575-6.258 1.575-2.864 0-7.022-2.18-7.022-7.147 0-4.962 3.796-7.305 7.466-7.305 2.502 0 4.242.566 5.773 1.332V59.46c-1.614-.724-3.632-1.29-6.863-1.29-8.111 0-15.015 5.329-15.015 14.085 0 8.76 6.176 14.169 14.248 14.169m-34.188-11.746 2.703-10.131h.364l2.707 10.131zm8.797 11.304h8.117l-8.236-27.45h-11.584l-8.195 27.45h8.112l1.497-5.691h8.758zm-40.404-27.45v27.45h7.912V75.365h10.736V69.27h-10.736v-4.48h10.858v-6.257h-18.77z"/></svg>