<?xml version="1.0" encoding="utf-8" standalone="no"?>
<!DOCTYPE svg PUBLIC "-//W3C//DTD SVG 1.1//EN"
  "http://www.w3.org/Graphics/SVG/1.1/DTD/svg11.dtd">
<svg xmlns:xlink="http://www.w3.org/1999/xlink" width="1260.298125pt" height="601.606875pt" viewBox="0 0 1260.298125 601.606875" xmlns="http://www.w3.org/2000/svg" version="1.1">
 <metadata>
  <rdf:RDF xmlns:dc="http://purl.org/dc/elements/1.1/" xmlns:cc="http://creativecommons.org/ns#" xmlns:rdf="http://www.w3.org/1999/02/22-rdf-syntax-ns#">
   <cc:Work>
    <dc:type rdf:resource="http://purl.org/dc/dcmitype/StillImage"/>
    <dc:date>2026-05-12T18:05:15.962971</dc:date>
    <dc:format>image/svg+xml</dc:format>
    <dc:creator>
     <cc:Agent>
      <dc:title>Matplotlib v3.10.9, https://matplotlib.org/</dc:title>
     </cc:Agent>
    </dc:creator>
   </cc:Work>
  </rdf:RDF>
 </metadata>
 <defs>
  <style type="text/css">*{stroke-linejoin: round; stroke-linecap: butt}</style>
 </defs>
 <g id="figure_1">
  <g id="patch_1">
   <path d="M 0 601.606875 
L 1260.298125 601.606875 
L 1260.298125 0 
L 0 0 
z
" style="fill: #ffffff"/>
  </g>
  <g id="axes_1">
   <g id="patch_2">
    <path d="M 114.269062 464.075625 
L 1146.029063 464.075625 
L 1146.029063 43.475625 
L 114.269062 43.475625 
z
" style="fill: #ffffff"/>
   </g>
   <g id="line2d_1">
    <path d="M 114.269062 253.775625 
L 1146.029063 253.775625 
" clip-path="url(#pdbea0e671b)" style="fill: none; stroke-dasharray: 5.55,2.4; stroke-dashoffset: 0; stroke: #808080; stroke-opacity: 0.8; stroke-width: 1.5"/>
   </g>
   <g id="matplotlib.axis_1">
    <g id="xtick_1">
     <g id="line2d_2">
      <path d="M 144.711742 464.075625 
L 144.711742 43.475625 
" clip-path="url(#pdbea0e671b)" style="fill: none; stroke: #b0b0b0; stroke-width: 0.8; stroke-linecap: square"/>
     </g>
     <g id="line2d_3">
      <defs>
       <path id="mcd8028f6cf" d="M 0 0 
L 0 3.5 
" style="stroke: #000000; stroke-width: 0.8"/>
      </defs>
      <g>
       <use xlink:href="#mcd8028f6cf" x="144.711742" y="464.075625" style="stroke: #000000; stroke-width: 0.8"/>
      </g>
     </g>
     <g id="text_1">
      <!-- 0 -->
      <g transform="translate(138.349242 486.2725) scale(0.2 -0.2)">
       <defs>
        <path id="DejaVuSans-30" d="M 2034 4250 
Q 1547 4250 1301 3770 
Q 1056 3291 1056 2328 
Q 1056 1369 1301 889 
Q 1547 409 2034 409 
Q 2525 409 2770 889 
Q 3016 1369 3016 2328 
Q 3016 3291 2770 3770 
Q 2525 4250 2034 4250 
z
M 2034 4750 
Q 2819 4750 3233 4129 
Q 3647 3509 3647 2328 
Q 3647 1150 3233 529 
Q 2819 -91 2034 -91 
Q 1250 -91 836 529 
Q 422 1150 422 2328 
Q 422 3509 836 4129 
Q 1250 4750 2034 4750 
z
" transform="scale(0.015625)"/>
       </defs>
       <use xlink:href="#DejaVuSans-30"/>
      </g>
     </g>
    </g>
    <g id="xtick_2">
     <g id="line2d_4">
      <path d="M 309.266766 464.075625 
L 309.266766 43.475625 
" clip-path="url(#pdbea0e671b)" style="fill: none; stroke: #b0b0b0; stroke-width: 0.8; stroke-linecap: square"/>
     </g>
     <g id="line2d_5">
      <g>
       <use xlink:href="#mcd8028f6cf" x="309.266766" y="464.075625" style="stroke: #000000; stroke-width: 0.8"/>
      </g>
     </g>
     <g id="text_2">
      <!-- 10000 -->
      <g transform="translate(277.454266 486.2725) scale(0.2 -0.2)">
       <defs>
        <path id="DejaVuSans-31" d="M 794 531 
L 1825 531 
L 1825 4091 
L 703 3866 
L 703 4441 
L 1819 4666 
L 2450 4666 
L 2450 531 
L 3481 531 
L 3481 0 
L 794 0 
L 794 531 
z
" transform="scale(0.015625)"/>
       </defs>
       <use xlink:href="#DejaVuSans-31"/>
       <use xlink:href="#DejaVuSans-30" transform="translate(63.623047 0)"/>
       <use xlink:href="#DejaVuSans-30" transform="translate(127.246094 0)"/>
       <use xlink:href="#DejaVuSans-30" transform="translate(190.869141 0)"/>
       <use xlink:href="#DejaVuSans-30" transform="translate(254.492188 0)"/>
      </g>
     </g>
    </g>
    <g id="xtick_3">
     <g id="line2d_6">
      <path d="M 473.82179 464.075625 
L 473.82179 43.475625 
" clip-path="url(#pdbea0e671b)" style="fill: none; stroke: #b0b0b0; stroke-width: 0.8; stroke-linecap: square"/>
     </g>
     <g id="line2d_7">
      <g>
       <use xlink:href="#mcd8028f6cf" x="473.82179" y="464.075625" style="stroke: #000000; stroke-width: 0.8"/>
      </g>
     </g>
     <g id="text_3">
      <!-- 20000 -->
      <g transform="translate(442.00929 486.2725) scale(0.2 -0.2)">
       <defs>
        <path id="DejaVuSans-32" d="M 1228 531 
L 3431 531 
L 3431 0 
L 469 0 
L 469 531 
Q 828 903 1448 1529 
Q 2069 2156 2228 2338 
Q 2531 2678 2651 2914 
Q 2772 3150 2772 3378 
Q 2772 3750 2511 3984 
Q 2250 4219 1831 4219 
Q 1534 4219 1204 4116 
Q 875 4013 500 3803 
L 500 4441 
Q 881 4594 1212 4672 
Q 1544 4750 1819 4750 
Q 2544 4750 2975 4387 
Q 3406 4025 3406 3419 
Q 3406 3131 3298 2873 
Q 3191 2616 2906 2266 
Q 2828 2175 2409 1742 
Q 1991 1309 1228 531 
z
" transform="scale(0.015625)"/>
       </defs>
       <use xlink:href="#DejaVuSans-32"/>
       <use xlink:href="#DejaVuSans-30" transform="translate(63.623047 0)"/>
       <use xlink:href="#DejaVuSans-30" transform="translate(127.246094 0)"/>
       <use xlink:href="#DejaVuSans-30" transform="translate(190.869141 0)"/>
       <use xlink:href="#DejaVuSans-30" transform="translate(254.492188 0)"/>
      </g>
     </g>
    </g>
    <g id="xtick_4">
     <g id="line2d_8">
      <path d="M 638.376814 464.075625 
L 638.376814 43.475625 
" clip-path="url(#pdbea0e671b)" style="fill: none; stroke: #b0b0b0; stroke-width: 0.8; stroke-linecap: square"/>
     </g>
     <g id="line2d_9">
      <g>
       <use xlink:href="#mcd8028f6cf" x="638.376814" y="464.075625" style="stroke: #000000; stroke-width: 0.8"/>
      </g>
     </g>
     <g id="text_4">
      <!-- 30000 -->
      <g transform="translate(606.564314 486.2725) scale(0.2 -0.2)">
       <defs>
        <path id="DejaVuSans-33" d="M 2597 2516 
Q 3050 2419 3304 2112 
Q 3559 1806 3559 1356 
Q 3559 666 3084 287 
Q 2609 -91 1734 -91 
Q 1441 -91 1130 -33 
Q 819 25 488 141 
L 488 750 
Q 750 597 1062 519 
Q 1375 441 1716 441 
Q 2309 441 2620 675 
Q 2931 909 2931 1356 
Q 2931 1769 2642 2001 
Q 2353 2234 1838 2234 
L 1294 2234 
L 1294 2753 
L 1863 2753 
Q 2328 2753 2575 2939 
Q 2822 3125 2822 3475 
Q 2822 3834 2567 4026 
Q 2313 4219 1838 4219 
Q 1578 4219 1281 4162 
Q 984 4106 628 3988 
L 628 4550 
Q 988 4650 1302 4700 
Q 1616 4750 1894 4750 
Q 2613 4750 3031 4423 
Q 3450 4097 3450 3541 
Q 3450 3153 3228 2886 
Q 3006 2619 2597 2516 
z
" transform="scale(0.015625)"/>
       </defs>
       <use xlink:href="#DejaVuSans-33"/>
       <use xlink:href="#DejaVuSans-30" transform="translate(63.623047 0)"/>
       <use xlink:href="#DejaVuSans-30" transform="translate(127.246094 0)"/>
       <use xlink:href="#DejaVuSans-30" transform="translate(190.869141 0)"/>
       <use xlink:href="#DejaVuSans-30" transform="translate(254.492188 0)"/>
      </g>
     </g>
    </g>
    <g id="xtick_5">
     <g id="line2d_10">
      <path d="M 802.931838 464.075625 
L 802.931838 43.475625 
" clip-path="url(#pdbea0e671b)" style="fill: none; stroke: #b0b0b0; stroke-width: 0.8; stroke-linecap: square"/>
     </g>
     <g id="line2d_11">
      <g>
       <use xlink:href="#mcd8028f6cf" x="802.931838" y="464.075625" style="stroke: #000000; stroke-width: 0.8"/>
      </g>
     </g>
     <g id="text_5">
      <!-- 40000 -->
      <g transform="translate(771.119338 486.2725) scale(0.2 -0.2)">
       <defs>
        <path id="DejaVuSans-34" d="M 2419 4116 
L 825 1625 
L 2419 1625 
L 2419 4116 
z
M 2253 4666 
L 3047 4666 
L 3047 1625 
L 3713 1625 
L 3713 1100 
L 3047 1100 
L 3047 0 
L 2419 0 
L 2419 1100 
L 313 1100 
L 313 1709 
L 2253 4666 
z
" transform="scale(0.015625)"/>
       </defs>
       <use xlink:href="#DejaVuSans-34"/>
       <use xlink:href="#DejaVuSans-30" transform="translate(63.623047 0)"/>
       <use xlink:href="#DejaVuSans-30" transform="translate(127.246094 0)"/>
       <use xlink:href="#DejaVuSans-30" transform="translate(190.869141 0)"/>
       <use xlink:href="#DejaVuSans-30" transform="translate(254.492188 0)"/>
      </g>
     </g>
    </g>
    <g id="xtick_6">
     <g id="line2d_12">
      <path d="M 967.486862 464.075625 
L 967.486862 43.475625 
" clip-path="url(#pdbea0e671b)" style="fill: none; stroke: #b0b0b0; stroke-width: 0.8; stroke-linecap: square"/>
     </g>
     <g id="line2d_13">
      <g>
       <use xlink:href="#mcd8028f6cf" x="967.486862" y="464.075625" style="stroke: #000000; stroke-width: 0.8"/>
      </g>
     </g>
     <g id="text_6">
      <!-- 50000 -->
      <g transform="translate(935.674362 486.2725) scale(0.2 -0.2)">
       <defs>
        <path id="DejaVuSans-35" d="M 691 4666 
L 3169 4666 
L 3169 4134 
L 1269 4134 
L 1269 2991 
Q 1406 3038 1543 3061 
Q 1681 3084 1819 3084 
Q 2600 3084 3056 2656 
Q 3513 2228 3513 1497 
Q 3513 744 3044 326 
Q 2575 -91 1722 -91 
Q 1428 -91 1123 -41 
Q 819 9 494 109 
L 494 744 
Q 775 591 1075 516 
Q 1375 441 1709 441 
Q 2250 441 2565 725 
Q 2881 1009 2881 1497 
Q 2881 1984 2565 2268 
Q 2250 2553 1709 2553 
Q 1456 2553 1204 2497 
Q 953 2441 691 2322 
L 691 4666 
z
" transform="scale(0.015625)"/>
       </defs>
       <use xlink:href="#DejaVuSans-35"/>
       <use xlink:href="#DejaVuSans-30" transform="translate(63.623047 0)"/>
       <use xlink:href="#DejaVuSans-30" transform="translate(127.246094 0)"/>
       <use xlink:href="#DejaVuSans-30" transform="translate(190.869141 0)"/>
       <use xlink:href="#DejaVuSans-30" transform="translate(254.492188 0)"/>
      </g>
     </g>
    </g>
    <g id="xtick_7">
     <g id="line2d_14">
      <path d="M 1132.041885 464.075625 
L 1132.041885 43.475625 
" clip-path="url(#pdbea0e671b)" style="fill: none; stroke: #b0b0b0; stroke-width: 0.8; stroke-linecap: square"/>
     </g>
     <g id="line2d_15">
      <g>
       <use xlink:href="#mcd8028f6cf" x="1132.041885" y="464.075625" style="stroke: #000000; stroke-width: 0.8"/>
      </g>
     </g>
     <g id="text_7">
      <!-- 60000 -->
      <g transform="translate(1100.229385 486.2725) scale(0.2 -0.2)">
       <defs>
        <path id="DejaVuSans-36" d="M 2113 2584 
Q 1688 2584 1439 2293 
Q 1191 2003 1191 1497 
Q 1191 994 1439 701 
Q 1688 409 2113 409 
Q 2538 409 2786 701 
Q 3034 994 3034 1497 
Q 3034 2003 2786 2293 
Q 2538 2584 2113 2584 
z
M 3366 4563 
L 3366 3988 
Q 3128 4100 2886 4159 
Q 2644 4219 2406 4219 
Q 1781 4219 1451 3797 
Q 1122 3375 1075 2522 
Q 1259 2794 1537 2939 
Q 1816 3084 2150 3084 
Q 2853 3084 3261 2657 
Q 3669 2231 3669 1497 
Q 3669 778 3244 343 
Q 2819 -91 2113 -91 
Q 1303 -91 875 529 
Q 447 1150 447 2328 
Q 447 3434 972 4092 
Q 1497 4750 2381 4750 
Q 2619 4750 2861 4703 
Q 3103 4656 3366 4563 
z
" transform="scale(0.015625)"/>
       </defs>
       <use xlink:href="#DejaVuSans-36"/>
       <use xlink:href="#DejaVuSans-30" transform="translate(63.623047 0)"/>
       <use xlink:href="#DejaVuSans-30" transform="translate(127.246094 0)"/>
       <use xlink:href="#DejaVuSans-30" transform="translate(190.869141 0)"/>
       <use xlink:href="#DejaVuSans-30" transform="translate(254.492188 0)"/>
      </g>
     </g>
    </g>
    <g id="text_8">
     <!-- Episode -->
     <g transform="translate(583.019063 518.668125) scale(0.24 -0.24)">
      <defs>
       <path id="DejaVuSans-45" d="M 628 4666 
L 3578 4666 
L 3578 4134 
L 1259 4134 
L 1259 2753 
L 3481 2753 
L 3481 2222 
L 1259 2222 
L 1259 531 
L 3634 531 
L 3634 0 
L 628 0 
L 628 4666 
z
" transform="scale(0.015625)"/>
       <path id="DejaVuSans-70" d="M 1159 525 
L 1159 -1331 
L 581 -1331 
L 581 3500 
L 1159 3500 
L 1159 2969 
Q 1341 3281 1617 3432 
Q 1894 3584 2278 3584 
Q 2916 3584 3314 3078 
Q 3713 2572 3713 1747 
Q 3713 922 3314 415 
Q 2916 -91 2278 -91 
Q 1894 -91 1617 61 
Q 1341 213 1159 525 
z
M 3116 1747 
Q 3116 2381 2855 2742 
Q 2594 3103 2138 3103 
Q 1681 3103 1420 2742 
Q 1159 2381 1159 1747 
Q 1159 1113 1420 752 
Q 1681 391 2138 391 
Q 2594 391 2855 752 
Q 3116 1113 3116 1747 
z
" transform="scale(0.015625)"/>
       <path id="DejaVuSans-69" d="M 603 3500 
L 1178 3500 
L 1178 0 
L 603 0 
L 603 3500 
z
M 603 4863 
L 1178 4863 
L 1178 4134 
L 603 4134 
L 603 4863 
z
" transform="scale(0.015625)"/>
       <path id="DejaVuSans-73" d="M 2834 3397 
L 2834 2853 
Q 2591 2978 2328 3040 
Q 2066 3103 1784 3103 
Q 1356 3103 1142 2972 
Q 928 2841 928 2578 
Q 928 2378 1081 2264 
Q 1234 2150 1697 2047 
L 1894 2003 
Q 2506 1872 2764 1633 
Q 3022 1394 3022 966 
Q 3022 478 2636 193 
Q 2250 -91 1575 -91 
Q 1294 -91 989 -36 
Q 684 19 347 128 
L 347 722 
Q 666 556 975 473 
Q 1284 391 1588 391 
Q 1994 391 2212 530 
Q 2431 669 2431 922 
Q 2431 1156 2273 1281 
Q 2116 1406 1581 1522 
L 1381 1569 
Q 847 1681 609 1914 
Q 372 2147 372 2553 
Q 372 3047 722 3315 
Q 1072 3584 1716 3584 
Q 2034 3584 2315 3537 
Q 2597 3491 2834 3397 
z
" transform="scale(0.015625)"/>
       <path id="DejaVuSans-6f" d="M 1959 3097 
Q 1497 3097 1228 2736 
Q 959 2375 959 1747 
Q 959 1119 1226 758 
Q 1494 397 1959 397 
Q 2419 397 2687 759 
Q 2956 1122 2956 1747 
Q 2956 2369 2687 2733 
Q 2419 3097 1959 3097 
z
M 1959 3584 
Q 2709 3584 3137 3096 
Q 3566 2609 3566 1747 
Q 3566 888 3137 398 
Q 2709 -91 1959 -91 
Q 1206 -91 779 398 
Q 353 888 353 1747 
Q 353 2609 779 3096 
Q 1206 3584 1959 3584 
z
" transform="scale(0.015625)"/>
       <path id="DejaVuSans-64" d="M 2906 2969 
L 2906 4863 
L 3481 4863 
L 3481 0 
L 2906 0 
L 2906 525 
Q 2725 213 2448 61 
Q 2172 -91 1784 -91 
Q 1150 -91 751 415 
Q 353 922 353 1747 
Q 353 2572 751 3078 
Q 1150 3584 1784 3584 
Q 2172 3584 2448 3432 
Q 2725 3281 2906 2969 
z
M 947 1747 
Q 947 1113 1208 752 
Q 1469 391 1925 391 
Q 2381 391 2643 752 
Q 2906 1113 2906 1747 
Q 2906 2381 2643 2742 
Q 2381 3103 1925 3103 
Q 1469 3103 1208 2742 
Q 947 2381 947 1747 
z
" transform="scale(0.015625)"/>
       <path id="DejaVuSans-65" d="M 3597 1894 
L 3597 1613 
L 953 1613 
Q 991 1019 1311 708 
Q 1631 397 2203 397 
Q 2534 397 2845 478 
Q 3156 559 3463 722 
L 3463 178 
Q 3153 47 2828 -22 
Q 2503 -91 2169 -91 
Q 1331 -91 842 396 
Q 353 884 353 1716 
Q 353 2575 817 3079 
Q 1281 3584 2069 3584 
Q 2775 3584 3186 3129 
Q 3597 2675 3597 1894 
z
M 3022 2063 
Q 3016 2534 2758 2815 
Q 2500 3097 2075 3097 
Q 1594 3097 1305 2825 
Q 1016 2553 972 2059 
L 3022 2063 
z
" transform="scale(0.015625)"/>
      </defs>
      <use xlink:href="#DejaVuSans-45"/>
      <use xlink:href="#DejaVuSans-70" transform="translate(63.183594 0)"/>
      <use xlink:href="#DejaVuSans-69" transform="translate(126.660156 0)"/>
      <use xlink:href="#DejaVuSans-73" transform="translate(154.443359 0)"/>
      <use xlink:href="#DejaVuSans-6f" transform="translate(206.542969 0)"/>
      <use xlink:href="#DejaVuSans-64" transform="translate(267.724609 0)"/>
      <use xlink:href="#DejaVuSans-65" transform="translate(331.201172 0)"/>
     </g>
    </g>
   </g>
   <g id="matplotlib.axis_2">
    <g id="ytick_1">
     <g id="line2d_16">
      <path d="M 114.269062 464.075625 
L 1146.029063 464.075625 
" clip-path="url(#pdbea0e671b)" style="fill: none; stroke: #b0b0b0; stroke-width: 0.8; stroke-linecap: square"/>
     </g>
     <g id="line2d_17">
      <defs>
       <path id="m13bb25c308" d="M 0 0 
L -3.5 0 
" style="stroke: #000000; stroke-width: 0.8"/>
      </defs>
      <g>
       <use xlink:href="#m13bb25c308" x="114.269062" y="464.075625" style="stroke: #000000; stroke-width: 0.8"/>
      </g>
     </g>
     <g id="text_9">
      <!-- 0% -->
      <g transform="translate(75.540937 471.674062) scale(0.2 -0.2)">
       <defs>
        <path id="DejaVuSans-25" d="M 4653 2053 
Q 4381 2053 4226 1822 
Q 4072 1591 4072 1178 
Q 4072 772 4226 539 
Q 4381 306 4653 306 
Q 4919 306 5073 539 
Q 5228 772 5228 1178 
Q 5228 1588 5073 1820 
Q 4919 2053 4653 2053 
z
M 4653 2450 
Q 5147 2450 5437 2106 
Q 5728 1763 5728 1178 
Q 5728 594 5436 251 
Q 5144 -91 4653 -91 
Q 4153 -91 3862 251 
Q 3572 594 3572 1178 
Q 3572 1766 3864 2108 
Q 4156 2450 4653 2450 
z
M 1428 4353 
Q 1159 4353 1004 4120 
Q 850 3888 850 3481 
Q 850 3069 1003 2837 
Q 1156 2606 1428 2606 
Q 1700 2606 1854 2837 
Q 2009 3069 2009 3481 
Q 2009 3884 1853 4118 
Q 1697 4353 1428 4353 
z
M 4250 4750 
L 4750 4750 
L 1831 -91 
L 1331 -91 
L 4250 4750 
z
M 1428 4750 
Q 1922 4750 2215 4408 
Q 2509 4066 2509 3481 
Q 2509 2891 2217 2550 
Q 1925 2209 1428 2209 
Q 931 2209 642 2551 
Q 353 2894 353 3481 
Q 353 4063 643 4406 
Q 934 4750 1428 4750 
z
" transform="scale(0.015625)"/>
       </defs>
       <use xlink:href="#DejaVuSans-30"/>
       <use xlink:href="#DejaVuSans-25" transform="translate(63.623047 0)"/>
      </g>
     </g>
    </g>
    <g id="ytick_2">
     <g id="line2d_18">
      <path d="M 114.269062 379.955625 
L 1146.029063 379.955625 
" clip-path="url(#pdbea0e671b)" style="fill: none; stroke: #b0b0b0; stroke-width: 0.8; stroke-linecap: square"/>
     </g>
     <g id="line2d_19">
      <g>
       <use xlink:href="#m13bb25c308" x="114.269062" y="379.955625" style="stroke: #000000; stroke-width: 0.8"/>
      </g>
     </g>
     <g id="text_10">
      <!-- 20% -->
      <g transform="translate(62.815937 387.554062) scale(0.2 -0.2)">
       <use xlink:href="#DejaVuSans-32"/>
       <use xlink:href="#DejaVuSans-30" transform="translate(63.623047 0)"/>
       <use xlink:href="#DejaVuSans-25" transform="translate(127.246094 0)"/>
      </g>
     </g>
    </g>
    <g id="ytick_3">
     <g id="line2d_20">
      <path d="M 114.269062 295.835625 
L 1146.029063 295.835625 
" clip-path="url(#pdbea0e671b)" style="fill: none; stroke: #b0b0b0; stroke-width: 0.8; stroke-linecap: square"/>
     </g>
     <g id="line2d_21">
      <g>
       <use xlink:href="#m13bb25c308" x="114.269062" y="295.835625" style="stroke: #000000; stroke-width: 0.8"/>
      </g>
     </g>
     <g id="text_11">
      <!-- 40% -->
      <g transform="translate(62.815937 303.434062) scale(0.2 -0.2)">
       <use xlink:href="#DejaVuSans-34"/>
       <use xlink:href="#DejaVuSans-30" transform="translate(63.623047 0)"/>
       <use xlink:href="#DejaVuSans-25" transform="translate(127.246094 0)"/>
      </g>
     </g>
    </g>
    <g id="ytick_4">
     <g id="line2d_22">
      <path d="M 114.269062 211.715625 
L 1146.029063 211.715625 
" clip-path="url(#pdbea0e671b)" style="fill: none; stroke: #b0b0b0; stroke-width: 0.8; stroke-linecap: square"/>
     </g>
     <g id="line2d_23">
      <g>
       <use xlink:href="#m13bb25c308" x="114.269062" y="211.715625" style="stroke: #000000; stroke-width: 0.8"/>
      </g>
     </g>
     <g id="text_12">
      <!-- 60% -->
      <g transform="translate(62.815937 219.314062) scale(0.2 -0.2)">
       <use xlink:href="#DejaVuSans-36"/>
       <use xlink:href="#DejaVuSans-30" transform="translate(63.623047 0)"/>
       <use xlink:href="#DejaVuSans-25" transform="translate(127.246094 0)"/>
      </g>
     </g>
    </g>
    <g id="ytick_5">
     <g id="line2d_24">
      <path d="M 114.269062 127.595625 
L 1146.029063 127.595625 
" clip-path="url(#pdbea0e671b)" style="fill: none; stroke: #b0b0b0; stroke-width: 0.8; stroke-linecap: square"/>
     </g>
     <g id="line2d_25">
      <g>
       <use xlink:href="#m13bb25c308" x="114.269062" y="127.595625" style="stroke: #000000; stroke-width: 0.8"/>
      </g>
     </g>
     <g id="text_13">
      <!-- 80% -->
      <g transform="translate(62.815937 135.194062) scale(0.2 -0.2)">
       <defs>
        <path id="DejaVuSans-38" d="M 2034 2216 
Q 1584 2216 1326 1975 
Q 1069 1734 1069 1313 
Q 1069 891 1326 650 
Q 1584 409 2034 409 
Q 2484 409 2743 651 
Q 3003 894 3003 1313 
Q 3003 1734 2745 1975 
Q 2488 2216 2034 2216 
z
M 1403 2484 
Q 997 2584 770 2862 
Q 544 3141 544 3541 
Q 544 4100 942 4425 
Q 1341 4750 2034 4750 
Q 2731 4750 3128 4425 
Q 3525 4100 3525 3541 
Q 3525 3141 3298 2862 
Q 3072 2584 2669 2484 
Q 3125 2378 3379 2068 
Q 3634 1759 3634 1313 
Q 3634 634 3220 271 
Q 2806 -91 2034 -91 
Q 1263 -91 848 271 
Q 434 634 434 1313 
Q 434 1759 690 2068 
Q 947 2378 1403 2484 
z
M 1172 3481 
Q 1172 3119 1398 2916 
Q 1625 2713 2034 2713 
Q 2441 2713 2670 2916 
Q 2900 3119 2900 3481 
Q 2900 3844 2670 4047 
Q 2441 4250 2034 4250 
Q 1625 4250 1398 4047 
Q 1172 3844 1172 3481 
z
" transform="scale(0.015625)"/>
       </defs>
       <use xlink:href="#DejaVuSans-38"/>
       <use xlink:href="#DejaVuSans-30" transform="translate(63.623047 0)"/>
       <use xlink:href="#DejaVuSans-25" transform="translate(127.246094 0)"/>
      </g>
     </g>
    </g>
    <g id="ytick_6">
     <g id="line2d_26">
      <path d="M 114.269062 43.475625 
L 1146.029063 43.475625 
" clip-path="url(#pdbea0e671b)" style="fill: none; stroke: #b0b0b0; stroke-width: 0.8; stroke-linecap: square"/>
     </g>
     <g id="line2d_27">
      <g>
       <use xlink:href="#m13bb25c308" x="114.269062" y="43.475625" style="stroke: #000000; stroke-width: 0.8"/>
      </g>
     </g>
     <g id="text_14">
      <!-- 100% -->
      <g transform="translate(50.090937 51.074062) scale(0.2 -0.2)">
       <use xlink:href="#DejaVuSans-31"/>
       <use xlink:href="#DejaVuSans-30" transform="translate(63.623047 0)"/>
       <use xlink:href="#DejaVuSans-30" transform="translate(127.246094 0)"/>
       <use xlink:href="#DejaVuSans-25" transform="translate(190.869141 0)"/>
      </g>
     </g>
    </g>
    <g id="text_15">
     <!-- Win Rate -->
     <g transform="translate(35.099687 307.633125) rotate(-90) scale(0.24 -0.24)">
      <defs>
       <path id="DejaVuSans-57" d="M 213 4666 
L 850 4666 
L 1831 722 
L 2809 4666 
L 3519 4666 
L 4500 722 
L 5478 4666 
L 6119 4666 
L 4947 0 
L 4153 0 
L 3169 4050 
L 2175 0 
L 1381 0 
L 213 4666 
z
" transform="scale(0.015625)"/>
       <path id="DejaVuSans-6e" d="M 3513 2113 
L 3513 0 
L 2938 0 
L 2938 2094 
Q 2938 2591 2744 2837 
Q 2550 3084 2163 3084 
Q 1697 3084 1428 2787 
Q 1159 2491 1159 1978 
L 1159 0 
L 581 0 
L 581 3500 
L 1159 3500 
L 1159 2956 
Q 1366 3272 1645 3428 
Q 1925 3584 2291 3584 
Q 2894 3584 3203 3211 
Q 3513 2838 3513 2113 
z
" transform="scale(0.015625)"/>
       <path id="DejaVuSans-20" transform="scale(0.015625)"/>
       <path id="DejaVuSans-52" d="M 2841 2188 
Q 3044 2119 3236 1894 
Q 3428 1669 3622 1275 
L 4263 0 
L 3584 0 
L 2988 1197 
Q 2756 1666 2539 1819 
Q 2322 1972 1947 1972 
L 1259 1972 
L 1259 0 
L 628 0 
L 628 4666 
L 2053 4666 
Q 2853 4666 3247 4331 
Q 3641 3997 3641 3322 
Q 3641 2881 3436 2590 
Q 3231 2300 2841 2188 
z
M 1259 4147 
L 1259 2491 
L 2053 2491 
Q 2509 2491 2742 2702 
Q 2975 2913 2975 3322 
Q 2975 3731 2742 3939 
Q 2509 4147 2053 4147 
L 1259 4147 
z
" transform="scale(0.015625)"/>
       <path id="DejaVuSans-61" d="M 2194 1759 
Q 1497 1759 1228 1600 
Q 959 1441 959 1056 
Q 959 750 1161 570 
Q 1363 391 1709 391 
Q 2188 391 2477 730 
Q 2766 1069 2766 1631 
L 2766 1759 
L 2194 1759 
z
M 3341 1997 
L 3341 0 
L 2766 0 
L 2766 531 
Q 2569 213 2275 61 
Q 1981 -91 1556 -91 
Q 1019 -91 701 211 
Q 384 513 384 1019 
Q 384 1609 779 1909 
Q 1175 2209 1959 2209 
L 2766 2209 
L 2766 2266 
Q 2766 2663 2505 2880 
Q 2244 3097 1772 3097 
Q 1472 3097 1187 3025 
Q 903 2953 641 2809 
L 641 3341 
Q 956 3463 1253 3523 
Q 1550 3584 1831 3584 
Q 2591 3584 2966 3190 
Q 3341 2797 3341 1997 
z
" transform="scale(0.015625)"/>
       <path id="DejaVuSans-74" d="M 1172 4494 
L 1172 3500 
L 2356 3500 
L 2356 3053 
L 1172 3053 
L 1172 1153 
Q 1172 725 1289 603 
Q 1406 481 1766 481 
L 2356 481 
L 2356 0 
L 1766 0 
Q 1100 0 847 248 
Q 594 497 594 1153 
L 594 3053 
L 172 3053 
L 172 3500 
L 594 3500 
L 594 4494 
L 1172 4494 
z
" transform="scale(0.015625)"/>
      </defs>
      <use xlink:href="#DejaVuSans-57"/>
      <use xlink:href="#DejaVuSans-69" transform="translate(96.626953 0)"/>
      <use xlink:href="#DejaVuSans-6e" transform="translate(124.410156 0)"/>
      <use xlink:href="#DejaVuSans-20" transform="translate(187.789062 0)"/>
      <use xlink:href="#DejaVuSans-52" transform="translate(219.576172 0)"/>
      <use xlink:href="#DejaVuSans-61" transform="translate(286.808594 0)"/>
      <use xlink:href="#DejaVuSans-74" transform="translate(348.087891 0)"/>
      <use xlink:href="#DejaVuSans-65" transform="translate(387.296875 0)"/>
     </g>
    </g>
   </g>
   <g id="line2d_28">
    <path d="M 161.167244 408.135825 
L 177.622747 314.762625 
L 194.078249 315.183225 
L 210.533751 338.736825 
L 226.989254 332.427825 
L 243.444756 349.672425 
L 259.900259 339.157425 
L 276.355761 355.981425 
L 292.811263 347.990025 
L 309.266766 345.887025 
L 325.722268 335.792625 
L 342.177771 329.904225 
L 358.633273 353.457825 
L 375.088775 339.998625 
L 391.544278 342.522225 
L 407.99978 358.925625 
L 424.455283 337.475025 
L 440.910785 350.093025 
L 457.366287 353.037225 
L 473.82179 339.157425 
L 490.277292 357.663825 
L 506.732795 348.831225 
L 523.188297 352.616625 
L 539.643799 350.093025 
L 556.099302 345.045825 
L 572.554804 351.775425 
L 589.010307 331.166025 
L 605.465809 330.745425 
L 621.921311 338.316225 
L 638.376814 347.990025 
L 654.832316 361.449225 
L 671.287818 356.822625 
L 687.743321 377.852625 
L 704.198823 372.384825 
L 720.654326 381.638025 
L 737.109828 387.526425 
L 753.56533 376.590825 
L 770.020833 378.273225 
L 786.476335 374.067225 
L 802.931838 376.590825 
L 819.38734 372.384825 
L 835.842842 377.432025 
" clip-path="url(#pdbea0e671b)" style="fill: none; stroke: #1f77b4; stroke-width: 1.5; stroke-linecap: square"/>
   </g>
   <g id="line2d_29">
    <path d="M 161.167244 435.895425 
L 177.622747 419.492025 
L 194.078249 416.127225 
L 210.533751 443.466225 
L 226.989254 456.504825 
L 243.444756 460.290225 
L 259.900259 462.393225 
L 276.355761 461.972625 
L 292.811263 464.075625 
L 309.266766 459.869625 
L 325.722268 462.393225 
L 342.177771 460.710825 
L 358.633273 461.552025 
L 375.088775 460.710825 
L 391.544278 463.655025 
L 407.99978 461.972625 
L 424.455283 461.972625 
L 440.910785 462.393225 
L 457.366287 462.393225 
L 473.82179 461.552025 
L 490.277292 464.075625 
L 506.732795 461.972625 
L 523.188297 463.234425 
L 539.643799 462.393225 
L 556.099302 463.234425 
L 572.554804 460.710825 
L 589.010307 461.972625 
L 605.465809 460.710825 
L 621.921311 460.710825 
L 638.376814 461.552025 
L 654.832316 461.552025 
L 671.287818 461.972625 
L 687.743321 462.393225 
L 704.198823 464.075625 
L 720.654326 462.393225 
L 737.109828 462.393225 
L 753.56533 462.393225 
L 770.020833 463.234425 
L 786.476335 462.393225 
L 802.931838 463.655025 
L 819.38734 461.972625 
L 835.842842 464.075625 
L 852.298345 462.813825 
L 868.753847 463.234425 
L 885.20935 463.655025 
L 901.664852 462.813825 
L 918.120354 463.655025 
L 934.575857 461.972625 
L 951.031359 463.234425 
L 967.486862 463.234425 
L 983.942364 462.813825 
L 1000.397866 461.972625 
L 1016.853369 463.234425 
L 1033.308871 463.655025 
L 1049.764374 462.393225 
L 1066.219876 463.234425 
" clip-path="url(#pdbea0e671b)" style="fill: none; stroke: #ff7f0e; stroke-width: 1.5; stroke-linecap: square"/>
   </g>
   <g id="line2d_30">
    <path d="M 161.167244 410.659425 
L 177.622747 353.037225 
L 194.078249 363.552225 
L 210.533751 359.346225 
L 226.989254 369.861225 
L 243.444756 347.990025 
L 259.900259 355.140225 
L 276.355761 345.045825 
L 292.811263 334.951425 
L 309.266766 325.698225 
L 325.722268 332.427825 
L 342.177771 336.213225 
L 358.633273 337.054425 
L 375.088775 340.419225 
L 391.544278 339.157425 
L 407.99978 347.148825 
L 424.455283 348.831225 
L 440.910785 332.007225 
L 457.366287 329.063025 
L 473.82179 340.419225 
L 490.277292 349.672425 
L 506.732795 357.243225 
L 523.188297 340.839825 
L 539.643799 350.513625 
L 556.099302 337.895625 
L 572.554804 349.251825 
L 589.010307 334.110225 
L 605.465809 348.831225 
L 621.921311 341.260425 
L 638.376814 340.419225 
L 654.832316 349.672425 
L 671.287818 334.951425 
L 687.743321 363.552225 
L 704.198823 353.037225 
L 720.654326 350.093025 
L 737.109828 346.728225 
L 753.56533 342.101625 
L 770.020833 340.419225 
L 786.476335 361.449225 
L 802.931838 374.067225 
L 819.38734 372.384825 
L 835.842842 370.281825 
L 852.298345 361.028625 
L 868.753847 370.702425 
L 885.20935 361.449225 
L 901.664852 364.814025 
L 918.120354 371.543625 
L 934.575857 366.917025 
L 951.031359 369.440625 
L 967.486862 366.917025 
L 983.942364 350.934225 
L 1000.397866 352.616625 
L 1016.853369 352.616625 
L 1033.308871 351.775425 
L 1049.764374 375.749625 
L 1066.219876 369.861225 
L 1082.675378 377.432025 
L 1099.130881 387.105825 
" clip-path="url(#pdbea0e671b)" style="fill: none; stroke: #2ca02c; stroke-width: 1.5; stroke-linecap: square"/>
   </g>
   <g id="patch_3">
    <path d="M 114.269062 464.075625 
L 114.269062 43.475625 
" style="fill: none; stroke: #000000; stroke-width: 0.8; stroke-linejoin: miter; stroke-linecap: square"/>
   </g>
   <g id="patch_4">
    <path d="M 1146.029063 464.075625 
L 1146.029063 43.475625 
" style="fill: none; stroke: #000000; stroke-width: 0.8; stroke-linejoin: miter; stroke-linecap: square"/>
   </g>
   <g id="patch_5">
    <path d="M 114.269062 464.075625 
L 1146.029063 464.075625 
" style="fill: none; stroke: #000000; stroke-width: 0.8; stroke-linejoin: miter; stroke-linecap: square"/>
   </g>
   <g id="patch_6">
    <path d="M 114.269062 43.475625 
L 1146.029063 43.475625 
" style="fill: none; stroke: #000000; stroke-width: 0.8; stroke-linejoin: miter; stroke-linecap: square"/>
   </g>
   <g id="text_16">
    <!-- Double DQN Training Win Rate -->
    <g transform="translate(416.850312 28.475625) scale(0.28 -0.28)">
     <defs>
      <path id="DejaVuSans-44" d="M 1259 4147 
L 1259 519 
L 2022 519 
Q 2988 519 3436 956 
Q 3884 1394 3884 2338 
Q 3884 3275 3436 3711 
Q 2988 4147 2022 4147 
L 1259 4147 
z
M 628 4666 
L 1925 4666 
Q 3281 4666 3915 4102 
Q 4550 3538 4550 2338 
Q 4550 1131 3912 565 
Q 3275 0 1925 0 
L 628 0 
L 628 4666 
z
" transform="scale(0.015625)"/>
      <path id="DejaVuSans-75" d="M 544 1381 
L 544 3500 
L 1119 3500 
L 1119 1403 
Q 1119 906 1312 657 
Q 1506 409 1894 409 
Q 2359 409 2629 706 
Q 2900 1003 2900 1516 
L 2900 3500 
L 3475 3500 
L 3475 0 
L 2900 0 
L 2900 538 
Q 2691 219 2414 64 
Q 2138 -91 1772 -91 
Q 1169 -91 856 284 
Q 544 659 544 1381 
z
M 1991 3584 
L 1991 3584 
z
" transform="scale(0.015625)"/>
      <path id="DejaVuSans-62" d="M 3116 1747 
Q 3116 2381 2855 2742 
Q 2594 3103 2138 3103 
Q 1681 3103 1420 2742 
Q 1159 2381 1159 1747 
Q 1159 1113 1420 752 
Q 1681 391 2138 391 
Q 2594 391 2855 752 
Q 3116 1113 3116 1747 
z
M 1159 2969 
Q 1341 3281 1617 3432 
Q 1894 3584 2278 3584 
Q 2916 3584 3314 3078 
Q 3713 2572 3713 1747 
Q 3713 922 3314 415 
Q 2916 -91 2278 -91 
Q 1894 -91 1617 61 
Q 1341 213 1159 525 
L 1159 0 
L 581 0 
L 581 4863 
L 1159 4863 
L 1159 2969 
z
" transform="scale(0.015625)"/>
      <path id="DejaVuSans-6c" d="M 603 4863 
L 1178 4863 
L 1178 0 
L 603 0 
L 603 4863 
z
" transform="scale(0.015625)"/>
      <path id="DejaVuSans-51" d="M 2522 4238 
Q 1834 4238 1429 3725 
Q 1025 3213 1025 2328 
Q 1025 1447 1429 934 
Q 1834 422 2522 422 
Q 3209 422 3611 934 
Q 4013 1447 4013 2328 
Q 4013 3213 3611 3725 
Q 3209 4238 2522 4238 
z
M 3406 84 
L 4238 -825 
L 3475 -825 
L 2784 -78 
Q 2681 -84 2626 -87 
Q 2572 -91 2522 -91 
Q 1538 -91 948 567 
Q 359 1225 359 2328 
Q 359 3434 948 4092 
Q 1538 4750 2522 4750 
Q 3503 4750 4090 4092 
Q 4678 3434 4678 2328 
Q 4678 1516 4351 937 
Q 4025 359 3406 84 
z
" transform="scale(0.015625)"/>
      <path id="DejaVuSans-4e" d="M 628 4666 
L 1478 4666 
L 3547 763 
L 3547 4666 
L 4159 4666 
L 4159 0 
L 3309 0 
L 1241 3903 
L 1241 0 
L 628 0 
L 628 4666 
z
" transform="scale(0.015625)"/>
      <path id="DejaVuSans-54" d="M -19 4666 
L 3928 4666 
L 3928 4134 
L 2272 4134 
L 2272 0 
L 1638 0 
L 1638 4134 
L -19 4134 
L -19 4666 
z
" transform="scale(0.015625)"/>
      <path id="DejaVuSans-72" d="M 2631 2963 
Q 2534 3019 2420 3045 
Q 2306 3072 2169 3072 
Q 1681 3072 1420 2755 
Q 1159 2438 1159 1844 
L 1159 0 
L 581 0 
L 581 3500 
L 1159 3500 
L 1159 2956 
Q 1341 3275 1631 3429 
Q 1922 3584 2338 3584 
Q 2397 3584 2469 3576 
Q 2541 3569 2628 3553 
L 2631 2963 
z
" transform="scale(0.015625)"/>
      <path id="DejaVuSans-67" d="M 2906 1791 
Q 2906 2416 2648 2759 
Q 2391 3103 1925 3103 
Q 1463 3103 1205 2759 
Q 947 2416 947 1791 
Q 947 1169 1205 825 
Q 1463 481 1925 481 
Q 2391 481 2648 825 
Q 2906 1169 2906 1791 
z
M 3481 434 
Q 3481 -459 3084 -895 
Q 2688 -1331 1869 -1331 
Q 1566 -1331 1297 -1286 
Q 1028 -1241 775 -1147 
L 775 -588 
Q 1028 -725 1275 -790 
Q 1522 -856 1778 -856 
Q 2344 -856 2625 -561 
Q 2906 -266 2906 331 
L 2906 616 
Q 2728 306 2450 153 
Q 2172 0 1784 0 
Q 1141 0 747 490 
Q 353 981 353 1791 
Q 353 2603 747 3093 
Q 1141 3584 1784 3584 
Q 2172 3584 2450 3431 
Q 2728 3278 2906 2969 
L 2906 3500 
L 3481 3500 
L 3481 434 
z
" transform="scale(0.015625)"/>
     </defs>
     <use xlink:href="#DejaVuSans-44"/>
     <use xlink:href="#DejaVuSans-6f" transform="translate(77.001953 0)"/>
     <use xlink:href="#DejaVuSans-75" transform="translate(138.183594 0)"/>
     <use xlink:href="#DejaVuSans-62" transform="translate(201.5625 0)"/>
     <use xlink:href="#DejaVuSans-6c" transform="translate(265.039062 0)"/>
     <use xlink:href="#DejaVuSans-65" transform="translate(292.822266 0)"/>
     <use xlink:href="#DejaVuSans-20" transform="translate(354.345703 0)"/>
     <use xlink:href="#DejaVuSans-44" transform="translate(386.132812 0)"/>
     <use xlink:href="#DejaVuSans-51" transform="translate(463.134766 0)"/>
     <use xlink:href="#DejaVuSans-4e" transform="translate(541.845703 0)"/>
     <use xlink:href="#DejaVuSans-20" transform="translate(616.650391 0)"/>
     <use xlink:href="#DejaVuSans-54" transform="translate(648.4375 0)"/>
     <use xlink:href="#DejaVuSans-72" transform="translate(694.771484 0)"/>
     <use xlink:href="#DejaVuSans-61" transform="translate(735.884766 0)"/>
     <use xlink:href="#DejaVuSans-69" transform="translate(797.164062 0)"/>
     <use xlink:href="#DejaVuSans-6e" transform="translate(824.947266 0)"/>
     <use xlink:href="#DejaVuSans-69" transform="translate(888.326172 0)"/>
     <use xlink:href="#DejaVuSans-6e" transform="translate(916.109375 0)"/>
     <use xlink:href="#DejaVuSans-67" transform="translate(979.488281 0)"/>
     <use xlink:href="#DejaVuSans-20" transform="translate(1042.964844 0)"/>
     <use xlink:href="#DejaVuSans-57" transform="translate(1074.751953 0)"/>
     <use xlink:href="#DejaVuSans-69" transform="translate(1171.378906 0)"/>
     <use xlink:href="#DejaVuSans-6e" transform="translate(1199.162109 0)"/>
     <use xlink:href="#DejaVuSans-20" transform="translate(1262.541016 0)"/>
     <use xlink:href="#DejaVuSans-52" transform="translate(1294.328125 0)"/>
     <use xlink:href="#DejaVuSans-61" transform="translate(1361.560547 0)"/>
     <use xlink:href="#DejaVuSans-74" transform="translate(1422.839844 0)"/>
     <use xlink:href="#DejaVuSans-65" transform="translate(1462.048828 0)"/>
    </g>
   </g>
   <g id="legend_1">
    <g id="patch_7">
     <path d="M 10.8 594.406875 
L 1249.498125 594.406875 
Q 1253.098125 594.406875 1253.098125 590.806875 
L 1253.098125 539.765625 
Q 1253.098125 536.165625 1249.498125 536.165625 
L 10.8 536.165625 
Q 7.2 536.165625 7.2 539.765625 
L 7.2 590.806875 
Q 7.2 594.406875 10.8 594.406875 
z
" style="fill: #ffffff; opacity: 0.8; stroke: #cccccc; stroke-linejoin: miter"/>
    </g>
    <g id="line2d_31">
     <path d="M 14.4 550.742813 
L 32.4 550.742813 
L 50.4 550.742813 
" style="fill: none; stroke: #1f77b4; stroke-width: 1.5; stroke-linecap: square"/>
    </g>
    <g id="text_17">
     <!-- Epsilon: 0.05, Target Update Frequency: 100, Hidden: 4x1024 -->
     <g transform="translate(64.8 557.042812) scale(0.18 -0.18)">
      <defs>
       <path id="DejaVuSans-3a" d="M 750 794 
L 1409 794 
L 1409 0 
L 750 0 
L 750 794 
z
M 750 3309 
L 1409 3309 
L 1409 2516 
L 750 2516 
L 750 3309 
z
" transform="scale(0.015625)"/>
       <path id="DejaVuSans-2e" d="M 684 794 
L 1344 794 
L 1344 0 
L 684 0 
L 684 794 
z
" transform="scale(0.015625)"/>
       <path id="DejaVuSans-2c" d="M 750 794 
L 1409 794 
L 1409 256 
L 897 -744 
L 494 -744 
L 750 256 
L 750 794 
z
" transform="scale(0.015625)"/>
       <path id="DejaVuSans-55" d="M 556 4666 
L 1191 4666 
L 1191 1831 
Q 1191 1081 1462 751 
Q 1734 422 2344 422 
Q 2950 422 3222 751 
Q 3494 1081 3494 1831 
L 3494 4666 
L 4128 4666 
L 4128 1753 
Q 4128 841 3676 375 
Q 3225 -91 2344 -91 
Q 1459 -91 1007 375 
Q 556 841 556 1753 
L 556 4666 
z
" transform="scale(0.015625)"/>
       <path id="DejaVuSans-46" d="M 628 4666 
L 3309 4666 
L 3309 4134 
L 1259 4134 
L 1259 2759 
L 3109 2759 
L 3109 2228 
L 1259 2228 
L 1259 0 
L 628 0 
L 628 4666 
z
" transform="scale(0.015625)"/>
       <path id="DejaVuSans-71" d="M 947 1747 
Q 947 1113 1208 752 
Q 1469 391 1925 391 
Q 2381 391 2643 752 
Q 2906 1113 2906 1747 
Q 2906 2381 2643 2742 
Q 2381 3103 1925 3103 
Q 1469 3103 1208 2742 
Q 947 2381 947 1747 
z
M 2906 525 
Q 2725 213 2448 61 
Q 2172 -91 1784 -91 
Q 1150 -91 751 415 
Q 353 922 353 1747 
Q 353 2572 751 3078 
Q 1150 3584 1784 3584 
Q 2172 3584 2448 3432 
Q 2725 3281 2906 2969 
L 2906 3500 
L 3481 3500 
L 3481 -1331 
L 2906 -1331 
L 2906 525 
z
" transform="scale(0.015625)"/>
       <path id="DejaVuSans-63" d="M 3122 3366 
L 3122 2828 
Q 2878 2963 2633 3030 
Q 2388 3097 2138 3097 
Q 1578 3097 1268 2742 
Q 959 2388 959 1747 
Q 959 1106 1268 751 
Q 1578 397 2138 397 
Q 2388 397 2633 464 
Q 2878 531 3122 666 
L 3122 134 
Q 2881 22 2623 -34 
Q 2366 -91 2075 -91 
Q 1284 -91 818 406 
Q 353 903 353 1747 
Q 353 2603 823 3093 
Q 1294 3584 2113 3584 
Q 2378 3584 2631 3529 
Q 2884 3475 3122 3366 
z
" transform="scale(0.015625)"/>
       <path id="DejaVuSans-79" d="M 2059 -325 
Q 1816 -950 1584 -1140 
Q 1353 -1331 966 -1331 
L 506 -1331 
L 506 -850 
L 844 -850 
Q 1081 -850 1212 -737 
Q 1344 -625 1503 -206 
L 1606 56 
L 191 3500 
L 800 3500 
L 1894 763 
L 2988 3500 
L 3597 3500 
L 2059 -325 
z
" transform="scale(0.015625)"/>
       <path id="DejaVuSans-48" d="M 628 4666 
L 1259 4666 
L 1259 2753 
L 3553 2753 
L 3553 4666 
L 4184 4666 
L 4184 0 
L 3553 0 
L 3553 2222 
L 1259 2222 
L 1259 0 
L 628 0 
L 628 4666 
z
" transform="scale(0.015625)"/>
       <path id="DejaVuSans-78" d="M 3513 3500 
L 2247 1797 
L 3578 0 
L 2900 0 
L 1881 1375 
L 863 0 
L 184 0 
L 1544 1831 
L 300 3500 
L 978 3500 
L 1906 2253 
L 2834 3500 
L 3513 3500 
z
" transform="scale(0.015625)"/>
      </defs>
      <use xlink:href="#DejaVuSans-45"/>
      <use xlink:href="#DejaVuSans-70" transform="translate(63.183594 0)"/>
      <use xlink:href="#DejaVuSans-73" transform="translate(126.660156 0)"/>
      <use xlink:href="#DejaVuSans-69" transform="translate(178.759766 0)"/>
      <use xlink:href="#DejaVuSans-6c" transform="translate(206.542969 0)"/>
      <use xlink:href="#DejaVuSans-6f" transform="translate(234.326172 0)"/>
      <use xlink:href="#DejaVuSans-6e" transform="translate(295.507812 0)"/>
      <use xlink:href="#DejaVuSans-3a" transform="translate(358.886719 0)"/>
      <use xlink:href="#DejaVuSans-20" transform="translate(392.578125 0)"/>
      <use xlink:href="#DejaVuSans-30" transform="translate(424.365234 0)"/>
      <use xlink:href="#DejaVuSans-2e" transform="translate(487.988281 0)"/>
      <use xlink:href="#DejaVuSans-30" transform="translate(519.775391 0)"/>
      <use xlink:href="#DejaVuSans-35" transform="translate(583.398438 0)"/>
      <use xlink:href="#DejaVuSans-2c" transform="translate(647.021484 0)"/>
      <use xlink:href="#DejaVuSans-20" transform="translate(678.808594 0)"/>
      <use xlink:href="#DejaVuSans-54" transform="translate(710.595703 0)"/>
      <use xlink:href="#DejaVuSans-61" transform="translate(755.179688 0)"/>
      <use xlink:href="#DejaVuSans-72" transform="translate(816.458984 0)"/>
      <use xlink:href="#DejaVuSans-67" transform="translate(855.822266 0)"/>
      <use xlink:href="#DejaVuSans-65" transform="translate(919.298828 0)"/>
      <use xlink:href="#DejaVuSans-74" transform="translate(980.822266 0)"/>
      <use xlink:href="#DejaVuSans-20" transform="translate(1020.03125 0)"/>
      <use xlink:href="#DejaVuSans-55" transform="translate(1051.818359 0)"/>
      <use xlink:href="#DejaVuSans-70" transform="translate(1125.011719 0)"/>
      <use xlink:href="#DejaVuSans-64" transform="translate(1188.488281 0)"/>
      <use xlink:href="#DejaVuSans-61" transform="translate(1251.964844 0)"/>
      <use xlink:href="#DejaVuSans-74" transform="translate(1313.244141 0)"/>
      <use xlink:href="#DejaVuSans-65" transform="translate(1352.453125 0)"/>
      <use xlink:href="#DejaVuSans-20" transform="translate(1413.976562 0)"/>
      <use xlink:href="#DejaVuSans-46" transform="translate(1445.763672 0)"/>
      <use xlink:href="#DejaVuSans-72" transform="translate(1496.033203 0)"/>
      <use xlink:href="#DejaVuSans-65" transform="translate(1534.896484 0)"/>
      <use xlink:href="#DejaVuSans-71" transform="translate(1596.419922 0)"/>
      <use xlink:href="#DejaVuSans-75" transform="translate(1659.896484 0)"/>
      <use xlink:href="#DejaVuSans-65" transform="translate(1723.275391 0)"/>
      <use xlink:href="#DejaVuSans-6e" transform="translate(1784.798828 0)"/>
      <use xlink:href="#DejaVuSans-63" transform="translate(1848.177734 0)"/>
      <use xlink:href="#DejaVuSans-79" transform="translate(1903.158203 0)"/>
      <use xlink:href="#DejaVuSans-3a" transform="translate(1955.087891 0)"/>
      <use xlink:href="#DejaVuSans-20" transform="translate(1988.779297 0)"/>
      <use xlink:href="#DejaVuSans-31" transform="translate(2020.566406 0)"/>
      <use xlink:href="#DejaVuSans-30" transform="translate(2084.189453 0)"/>
      <use xlink:href="#DejaVuSans-30" transform="translate(2147.8125 0)"/>
      <use xlink:href="#DejaVuSans-2c" transform="translate(2211.435547 0)"/>
      <use xlink:href="#DejaVuSans-20" transform="translate(2243.222656 0)"/>
      <use xlink:href="#DejaVuSans-48" transform="translate(2275.009766 0)"/>
      <use xlink:href="#DejaVuSans-69" transform="translate(2350.205078 0)"/>
      <use xlink:href="#DejaVuSans-64" transform="translate(2377.988281 0)"/>
      <use xlink:href="#DejaVuSans-64" transform="translate(2441.464844 0)"/>
      <use xlink:href="#DejaVuSans-65" transform="translate(2504.941406 0)"/>
      <use xlink:href="#DejaVuSans-6e" transform="translate(2566.464844 0)"/>
      <use xlink:href="#DejaVuSans-3a" transform="translate(2629.84375 0)"/>
      <use xlink:href="#DejaVuSans-20" transform="translate(2663.535156 0)"/>
      <use xlink:href="#DejaVuSans-34" transform="translate(2695.322266 0)"/>
      <use xlink:href="#DejaVuSans-78" transform="translate(2758.945312 0)"/>
      <use xlink:href="#DejaVuSans-31" transform="translate(2818.125 0)"/>
      <use xlink:href="#DejaVuSans-30" transform="translate(2881.748047 0)"/>
      <use xlink:href="#DejaVuSans-32" transform="translate(2945.371094 0)"/>
      <use xlink:href="#DejaVuSans-34" transform="translate(3008.994141 0)"/>
     </g>
    </g>
    <g id="line2d_32">
     <path d="M 14.4 577.163437 
L 32.4 577.163437 
L 50.4 577.163437 
" style="fill: none; stroke: #ff7f0e; stroke-width: 1.5; stroke-linecap: square"/>
    </g>
    <g id="text_18">
     <!-- Epsilon: 0.1, Target Update Frequency: 100, Hidden: 2x1024 -->
     <g transform="translate(64.8 583.463437) scale(0.18 -0.18)">
      <use xlink:href="#DejaVuSans-45"/>
      <use xlink:href="#DejaVuSans-70" transform="translate(63.183594 0)"/>
      <use xlink:href="#DejaVuSans-73" transform="translate(126.660156 0)"/>
      <use xlink:href="#DejaVuSans-69" transform="translate(178.759766 0)"/>
      <use xlink:href="#DejaVuSans-6c" transform="translate(206.542969 0)"/>
      <use xlink:href="#DejaVuSans-6f" transform="translate(234.326172 0)"/>
      <use xlink:href="#DejaVuSans-6e" transform="translate(295.507812 0)"/>
      <use xlink:href="#DejaVuSans-3a" transform="translate(358.886719 0)"/>
      <use xlink:href="#DejaVuSans-20" transform="translate(392.578125 0)"/>
      <use xlink:href="#DejaVuSans-30" transform="translate(424.365234 0)"/>
      <use xlink:href="#DejaVuSans-2e" transform="translate(487.988281 0)"/>
      <use xlink:href="#DejaVuSans-31" transform="translate(519.775391 0)"/>
      <use xlink:href="#DejaVuSans-2c" transform="translate(583.398438 0)"/>
      <use xlink:href="#DejaVuSans-20" transform="translate(615.185547 0)"/>
      <use xlink:href="#DejaVuSans-54" transform="translate(646.972656 0)"/>
      <use xlink:href="#DejaVuSans-61" transform="translate(691.556641 0)"/>
      <use xlink:href="#DejaVuSans-72" transform="translate(752.835938 0)"/>
      <use xlink:href="#DejaVuSans-67" transform="translate(792.199219 0)"/>
      <use xlink:href="#DejaVuSans-65" transform="translate(855.675781 0)"/>
      <use xlink:href="#DejaVuSans-74" transform="translate(917.199219 0)"/>
      <use xlink:href="#DejaVuSans-20" transform="translate(956.408203 0)"/>
      <use xlink:href="#DejaVuSans-55" transform="translate(988.195312 0)"/>
      <use xlink:href="#DejaVuSans-70" transform="translate(1061.388672 0)"/>
      <use xlink:href="#DejaVuSans-64" transform="translate(1124.865234 0)"/>
      <use xlink:href="#DejaVuSans-61" transform="translate(1188.341797 0)"/>
      <use xlink:href="#DejaVuSans-74" transform="translate(1249.621094 0)"/>
      <use xlink:href="#DejaVuSans-65" transform="translate(1288.830078 0)"/>
      <use xlink:href="#DejaVuSans-20" transform="translate(1350.353516 0)"/>
      <use xlink:href="#DejaVuSans-46" transform="translate(1382.140625 0)"/>
      <use xlink:href="#DejaVuSans-72" transform="translate(1432.410156 0)"/>
      <use xlink:href="#DejaVuSans-65" transform="translate(1471.273438 0)"/>
      <use xlink:href="#DejaVuSans-71" transform="translate(1532.796875 0)"/>
      <use xlink:href="#DejaVuSans-75" transform="translate(1596.273438 0)"/>
      <use xlink:href="#DejaVuSans-65" transform="translate(1659.652344 0)"/>
      <use xlink:href="#DejaVuSans-6e" transform="translate(1721.175781 0)"/>
      <use xlink:href="#DejaVuSans-63" transform="translate(1784.554688 0)"/>
      <use xlink:href="#DejaVuSans-79" transform="translate(1839.535156 0)"/>
      <use xlink:href="#DejaVuSans-3a" transform="translate(1891.464844 0)"/>
      <use xlink:href="#DejaVuSans-20" transform="translate(1925.15625 0)"/>
      <use xlink:href="#DejaVuSans-31" transform="translate(1956.943359 0)"/>
      <use xlink:href="#DejaVuSans-30" transform="translate(2020.566406 0)"/>
      <use xlink:href="#DejaVuSans-30" transform="translate(2084.189453 0)"/>
      <use xlink:href="#DejaVuSans-2c" transform="translate(2147.8125 0)"/>
      <use xlink:href="#DejaVuSans-20" transform="translate(2179.599609 0)"/>
      <use xlink:href="#DejaVuSans-48" transform="translate(2211.386719 0)"/>
      <use xlink:href="#DejaVuSans-69" transform="translate(2286.582031 0)"/>
      <use xlink:href="#DejaVuSans-64" transform="translate(2314.365234 0)"/>
      <use xlink:href="#DejaVuSans-64" transform="translate(2377.841797 0)"/>
      <use xlink:href="#DejaVuSans-65" transform="translate(2441.318359 0)"/>
      <use xlink:href="#DejaVuSans-6e" transform="translate(2502.841797 0)"/>
      <use xlink:href="#DejaVuSans-3a" transform="translate(2566.220703 0)"/>
      <use xlink:href="#DejaVuSans-20" transform="translate(2599.912109 0)"/>
      <use xlink:href="#DejaVuSans-32" transform="translate(2631.699219 0)"/>
      <use xlink:href="#DejaVuSans-78" transform="translate(2695.322266 0)"/>
      <use xlink:href="#DejaVuSans-31" transform="translate(2754.501953 0)"/>
      <use xlink:href="#DejaVuSans-30" transform="translate(2818.125 0)"/>
      <use xlink:href="#DejaVuSans-32" transform="translate(2881.748047 0)"/>
      <use xlink:href="#DejaVuSans-34" transform="translate(2945.371094 0)"/>
     </g>
    </g>
    <g id="line2d_33">
     <path d="M 653.875312 550.742813 
L 671.875312 550.742813 
L 689.875312 550.742813 
" style="fill: none; stroke: #2ca02c; stroke-width: 1.5; stroke-linecap: square"/>
    </g>
    <g id="text_19">
     <!-- Epsilon: 0.1, Target Update Frequency: 100, Hidden: 4x1024 -->
     <g transform="translate(704.275312 557.042812) scale(0.18 -0.18)">
      <use xlink:href="#DejaVuSans-45"/>
      <use xlink:href="#DejaVuSans-70" transform="translate(63.183594 0)"/>
      <use xlink:href="#DejaVuSans-73" transform="translate(126.660156 0)"/>
      <use xlink:href="#DejaVuSans-69" transform="translate(178.759766 0)"/>
      <use xlink:href="#DejaVuSans-6c" transform="translate(206.542969 0)"/>
      <use xlink:href="#DejaVuSans-6f" transform="translate(234.326172 0)"/>
      <use xlink:href="#DejaVuSans-6e" transform="translate(295.507812 0)"/>
      <use xlink:href="#DejaVuSans-3a" transform="translate(358.886719 0)"/>
      <use xlink:href="#DejaVuSans-20" transform="translate(392.578125 0)"/>
      <use xlink:href="#DejaVuSans-30" transform="translate(424.365234 0)"/>
      <use xlink:href="#DejaVuSans-2e" transform="translate(487.988281 0)"/>
      <use xlink:href="#DejaVuSans-31" transform="translate(519.775391 0)"/>
      <use xlink:href="#DejaVuSans-2c" transform="translate(583.398438 0)"/>
      <use xlink:href="#DejaVuSans-20" transform="translate(615.185547 0)"/>
      <use xlink:href="#DejaVuSans-54" transform="translate(646.972656 0)"/>
      <use xlink:href="#DejaVuSans-61" transform="translate(691.556641 0)"/>
      <use xlink:href="#DejaVuSans-72" transform="translate(752.835938 0)"/>
      <use xlink:href="#DejaVuSans-67" transform="translate(792.199219 0)"/>
      <use xlink:href="#DejaVuSans-65" transform="translate(855.675781 0)"/>
      <use xlink:href="#DejaVuSans-74" transform="translate(917.199219 0)"/>
      <use xlink:href="#DejaVuSans-20" transform="translate(956.408203 0)"/>
      <use xlink:href="#DejaVuSans-55" transform="translate(988.195312 0)"/>
      <use xlink:href="#DejaVuSans-70" transform="translate(1061.388672 0)"/>
      <use xlink:href="#DejaVuSans-64" transform="translate(1124.865234 0)"/>
      <use xlink:href="#DejaVuSans-61" transform="translate(1188.341797 0)"/>
      <use xlink:href="#DejaVuSans-74" transform="translate(1249.621094 0)"/>
      <use xlink:href="#DejaVuSans-65" transform="translate(1288.830078 0)"/>
      <use xlink:href="#DejaVuSans-20" transform="translate(1350.353516 0)"/>
      <use xlink:href="#DejaVuSans-46" transform="translate(1382.140625 0)"/>
      <use xlink:href="#DejaVuSans-72" transform="translate(1432.410156 0)"/>
      <use xlink:href="#DejaVuSans-65" transform="translate(1471.273438 0)"/>
      <use xlink:href="#DejaVuSans-71" transform="translate(1532.796875 0)"/>
      <use xlink:href="#DejaVuSans-75" transform="translate(1596.273438 0)"/>
      <use xlink:href="#DejaVuSans-65" transform="translate(1659.652344 0)"/>
      <use xlink:href="#DejaVuSans-6e" transform="translate(1721.175781 0)"/>
      <use xlink:href="#DejaVuSans-63" transform="translate(1784.554688 0)"/>
      <use xlink:href="#DejaVuSans-79" transform="translate(1839.535156 0)"/>
      <use xlink:href="#DejaVuSans-3a" transform="translate(1891.464844 0)"/>
      <use xlink:href="#DejaVuSans-20" transform="translate(1925.15625 0)"/>
      <use xlink:href="#DejaVuSans-31" transform="translate(1956.943359 0)"/>
      <use xlink:href="#DejaVuSans-30" transform="translate(2020.566406 0)"/>
      <use xlink:href="#DejaVuSans-30" transform="translate(2084.189453 0)"/>
      <use xlink:href="#DejaVuSans-2c" transform="translate(2147.8125 0)"/>
      <use xlink:href="#DejaVuSans-20" transform="translate(2179.599609 0)"/>
      <use xlink:href="#DejaVuSans-48" transform="translate(2211.386719 0)"/>
      <use xlink:href="#DejaVuSans-69" transform="translate(2286.582031 0)"/>
      <use xlink:href="#DejaVuSans-64" transform="translate(2314.365234 0)"/>
      <use xlink:href="#DejaVuSans-64" transform="translate(2377.841797 0)"/>
      <use xlink:href="#DejaVuSans-65" transform="translate(2441.318359 0)"/>
      <use xlink:href="#DejaVuSans-6e" transform="translate(2502.841797 0)"/>
      <use xlink:href="#DejaVuSans-3a" transform="translate(2566.220703 0)"/>
      <use xlink:href="#DejaVuSans-20" transform="translate(2599.912109 0)"/>
      <use xlink:href="#DejaVuSans-34" transform="translate(2631.699219 0)"/>
      <use xlink:href="#DejaVuSans-78" transform="translate(2695.322266 0)"/>
      <use xlink:href="#DejaVuSans-31" transform="translate(2754.501953 0)"/>
      <use xlink:href="#DejaVuSans-30" transform="translate(2818.125 0)"/>
      <use xlink:href="#DejaVuSans-32" transform="translate(2881.748047 0)"/>
      <use xlink:href="#DejaVuSans-34" transform="translate(2945.371094 0)"/>
     </g>
    </g>
   </g>
  </g>
 </g>
 <defs>
  <clipPath id="pdbea0e671b">
   <rect x="114.269062" y="43.475625" width="1031.76" height="420.6"/>
  </clipPath>
 </defs>
</svg>
